PathFileType  4	(X/Y/Z) D:\Research_projects\MuscleProsody\BulkSports2Dtrack\RetrackedSports2D\p1_sample60_cam2\p1_sample60_cam2_Sports2D\pose-3d
DataRate	CameraRate	NumFrames	NumMarkers	Units	OrigDataRate	OrigDataStartFrame	OrigNumFrames
60.0	60.0	16	22	m	60.0	682	780
Frame#	Time	Hip			RHip			RKnee			RAnkle			RBigToe			RSmallToe			RHeel			LHip			LKnee			LAnkle			LBigToe			LSmallToe			LHeel			Neck			Head			Nose			RShoulder			RElbow			RWrist			LShoulder			LElbow			LWrist			
		X1	Y1	Z1	X2	Y2	Z2	X3	Y3	Z3	X4	Y4	Z4	X5	Y5	Z5	X6	Y6	Z6	X7	Y7	Z7	X8	Y8	Z8	X9	Y9	Z9	X10	Y10	Z10	X11	Y11	Z11	X12	Y12	Z12	X13	Y13	Z13	X14	Y14	Z14	X15	Y15	Z15	X16	Y16	Z16	X17	Y17	Z17	X18	Y18	Z18	X19	Y19	Z19	X20	Y20	Z20	X21	Y21	Z21	X22	Y22	Z22	

683	11.3666667	0.8550307	0.8650573	0.0301000	0.7612198	0.8674966	0.0301000	0.7545013	0.4651100	0.1290000	0.7578591	0.1228585	0.0230000	0.7514376	-0.0029716	0.2179000	0.7051185	0.0189455	0.1804000	0.7742952	0.1008471	-0.0119000	0.9485859	0.8586118	0.0301000	0.9267269	0.4625794	0.1290000	0.9257282	0.1169337	0.0230000	0.9138317	-0.0056077	0.2179000	0.9689056	0.0100809	0.1804000	0.9165395	0.1005154	-0.0119000	0.8625607	1.5073995	0.0008000	0.8318986	1.7923187	0.0655000	0.8032814	1.6165335	0.1076000	0.6927152	1.3903925	-0.0127500	0.5590847	1.1896308	0.0702000	0.4806522	1.1234184	0.1076000	1.0575976	1.3998984	-0.0127500	1.1062819	1.1199510	0.0702000	1.0340410	0.9188440	0.1076000
684	11.3833333	0.8538723	0.8643309	0.0301000	0.7598646	0.8675773	0.0301000	0.7543049	0.4666648	0.1290000	0.7582803	0.1223748	0.0230000	0.7514533	-0.0030596	0.2179000	0.7049500	0.0193660	0.1804000	0.7745892	0.1007223	-0.0119000	0.9481614	0.8588252	0.0301000	0.9262692	0.4639571	0.1290000	0.9254124	0.1166447	0.0230000	0.9133319	-0.0055398	0.2179000	0.9682733	0.0101570	0.1804000	0.9161582	0.1008063	-0.0119000	0.8628688	1.5084645	0.0008000	0.8328774	1.7925045	0.0655000	0.8037821	1.6174229	0.1076000	0.6931730	1.3903078	-0.0127500	0.5644467	1.1855036	0.0702000	0.5067700	1.1147464	0.1076000	1.0577537	1.3990655	-0.0127500	1.1045680	1.1184888	0.0702000	1.0314505	0.9183369	0.1076000
685	11.4000000	0.8527235	0.8636109	0.0301000	0.7585687	0.8677860	0.0301000	0.7540267	0.4682596	0.1290000	0.7586339	0.1221087	0.0230000	0.7515782	-0.0032199	0.2179000	0.7046585	0.0197215	0.1804000	0.7747479	0.1006008	-0.0119000	0.9477452	0.8591507	0.0301000	0.9257782	0.4653580	0.1290000	0.9250535	0.1166465	0.0230000	0.9127497	-0.0056058	0.2179000	0.9676195	0.0101935	0.1804000	0.9156077	0.1012423	-0.0119000	0.8631334	1.5096020	0.0008000	0.8338378	1.7927474	0.0655000	0.8041498	1.6181660	0.1076000	0.6938076	1.3901886	-0.0127500	0.5696116	1.1799916	0.0702000	0.5317132	1.1030993	0.1076000	1.0578119	1.3983113	-0.0127500	1.1028233	1.1169736	0.0702000	1.0289974	0.9176520	0.1076000
686	11.4166667	0.8516532	0.8629419	0.0301000	0.7574032	0.8681691	0.0301000	0.7536552	0.4698733	0.1290000	0.7589134	0.1220665	0.0230000	0.7518219	-0.0034574	0.2179000	0.7042560	0.0199790	0.1804000	0.7748114	0.1004819	-0.0119000	0.9473070	0.8596309	0.0301000	0.9252459	0.4667798	0.1290000	0.9246667	0.1169446	0.0230000	0.9120985	-0.0058288	0.2179000	0.9669917	0.0101722	0.1804000	0.9149334	0.1017905	-0.0119000	0.8633726	1.5107530	0.0008000	0.8347226	1.7930208	0.0655000	0.8043739	1.6187434	0.1076000	0.6946087	1.3900425	-0.0127500	0.5747582	1.1732192	0.0702000	0.5554807	1.0885111	0.1076000	1.0577628	1.3976768	-0.0127500	1.1011107	1.1154491	0.0702000	1.0267554	0.9167013	0.1076000
687	11.4333333	0.8507280	0.8623647	0.0301000	0.7564312	0.8687457	0.0301000	0.7531921	0.4714782	0.1290000	0.7591304	0.1222131	0.0230000	0.7521908	-0.0037738	0.2179000	0.7037779	0.0201090	0.1804000	0.7748479	0.1003666	-0.0119000	0.9468201	0.8602926	0.0301000	0.9246705	0.4682161	0.1290000	0.9242771	0.1175151	0.0230000	0.9114087	-0.0062239	0.2179000	0.9664185	0.0100729	0.1804000	0.9142076	0.1024162	-0.0119000	0.8636011	1.5118515	0.0008000	0.8355061	1.7933071	0.0655000	0.8044516	1.6191324	0.1076000	0.6955309	1.3898734	-0.0127500	0.5800848	1.1654605	0.0702000	0.5780836	1.0712696	0.1076000	1.0576146	1.3971861	-0.0127500	1.0994899	1.1139584	0.0702000	1.0248023	0.9153854	0.1076000
688	11.4500000	0.8500062	0.8619114	0.0301000	0.7557041	0.8694980	0.0301000	0.7526495	0.4730383	0.1290000	0.7593162	0.1225004	0.0230000	0.7526768	-0.0041649	0.2179000	0.7032752	0.0200981	0.1804000	0.7749454	0.1002634	-0.0119000	0.9462701	0.8611342	0.0301000	0.9240587	0.4696496	0.1290000	0.9239138	0.1183132	0.0230000	0.9107204	-0.0067895	0.2179000	0.9659149	0.0098824	0.1804000	0.9135112	0.1030842	-0.0119000	0.8638238	1.5128419	0.0008000	0.8361834	1.7935957	0.0655000	0.8043835	1.6193240	0.1076000	0.6965044	1.3896899	-0.0127500	0.5857479	1.1571007	0.0702000	0.5994551	1.0519106	0.1076000	1.0573908	1.3968439	-0.0127500	1.0980089	1.1125359	0.0702000	1.0232175	0.9136079	0.1076000
689	11.4666667	0.8495280	0.8616117	0.0301000	0.7552590	0.8703827	0.0301000	0.7520455	0.4745134	0.1290000	0.7595055	0.1228900	0.0230000	0.7532523	-0.0046180	0.2179000	0.7028007	0.0199556	0.1804000	0.7751786	0.1001875	-0.0119000	0.9456592	0.8621345	0.0301000	0.9234247	0.4710507	0.1290000	0.9236041	0.1192803	0.0230000	0.9100726	-0.0075019	0.2179000	0.9654874	0.0095973	0.1804000	0.9129089	0.1037567	-0.0119000	0.8640364	1.5136858	0.0008000	0.8367548	1.7938769	0.0655000	0.8041805	1.6193364	0.1076000	0.6974512	1.3895113	-0.0127500	0.5918153	1.1485627	0.0702000	0.6194169	1.0311221	0.1076000	1.0571230	1.3966442	-0.0127500	1.0966989	1.1111987	0.0702000	1.0220784	0.9112873	0.1076000
690	11.4833333	0.8493048	0.8615009	0.0301000	0.7551212	0.8713481	0.0301000	0.7514044	0.4758630	0.1290000	0.7597180	0.1233497	0.0230000	0.7538891	-0.0051145	0.2179000	0.7024041	0.0197010	0.1804000	0.7755833	0.1001489	-0.0119000	0.9450019	0.8632686	0.0301000	0.9227849	0.4723822	0.1290000	0.9233682	0.1203471	0.0230000	0.9094995	-0.0083257	0.2179000	0.9651359	0.0092193	0.1804000	0.9124354	0.1043966	-0.0119000	0.8642313	1.5143582	0.0008000	0.8372290	1.7941431	0.0655000	0.8038705	1.6192006	0.1076000	0.6982967	1.3893618	-0.0127500	0.5982482	1.1402318	0.0702000	0.6377013	1.0096094	0.1076000	1.0568422	1.3965785	-0.0127500	1.0955706	1.1099514	0.0702000	1.0214561	0.9083589	0.1076000
691	11.5000000	0.8493199	0.8616202	0.0301000	0.7553037	0.8723443	0.0301000	0.7507580	0.4770525	0.1290000	0.7599548	0.1238438	0.0230000	0.7545708	-0.0056328	0.2179000	0.7021295	0.0193529	0.1804000	0.7761573	0.1001433	-0.0119000	0.9443175	0.8645105	0.0301000	0.9221520	0.4736066	0.1290000	0.9232169	0.1214384	0.0230000	0.9090238	-0.0092214	0.2179000	0.9648548	0.0087544	0.1804000	0.9121009	0.1049686	-0.0119000	0.8644010	1.5148446	0.0008000	0.8376332	1.7943934	0.0655000	0.8034884	1.6189441	0.1076000	0.6989734	1.3892574	-0.0127500	0.6049113	1.1324161	0.0702000	0.6539847	0.9880191	0.1076000	1.0565730	1.3966347	-0.0127500	1.0946114	1.1087944	0.0702000	1.0214144	0.9047713	0.1076000
692	11.5166667	0.8495376	0.8620048	0.0301000	0.7558003	0.8733285	0.0301000	0.7501436	0.4780615	0.1290000	0.7602059	0.1243385	0.0230000	0.7552802	-0.0061491	0.2179000	0.7020026	0.0189320	0.1804000	0.7768724	0.1001539	-0.0119000	0.9436280	0.8658288	0.0301000	0.9215332	0.4746941	0.1290000	0.9231507	0.1224872	0.0230000	0.9086453	-0.0101380	0.2179000	0.9646319	0.0082174	0.1804000	0.9119077	0.1054404	-0.0119000	0.8645344	1.5151454	0.0008000	0.8380047	1.7946307	0.0655000	0.8030582	1.6185927	0.1076000	0.6994227	1.3891991	-0.0127500	0.6115997	1.1253361	0.0702000	0.6679420	0.9669096	0.1076000	1.0563295	1.3967915	-0.0127500	1.0937872	1.1077205	0.0702000	1.0220096	0.9004837	0.1076000
693	11.5333333	0.8499122	0.8626622	0.0301000	0.7565774	0.8742603	0.0301000	0.7496003	0.4788854	0.1290000	0.7604569	0.1248127	0.0230000	0.7559941	-0.0066383	0.2179000	0.7020258	0.0184655	0.1804000	0.7776818	0.1001640	-0.0119000	0.9429557	0.8671753	0.0301000	0.9209361	0.4756224	0.1290000	0.9231573	0.1234463	0.0230000	0.9083375	-0.0110092	0.2179000	0.9644457	0.0076342	0.1804000	0.9118566	0.1057895	-0.0119000	0.8646148	1.5152774	0.0008000	0.8383750	1.7948540	0.0655000	0.8025905	1.6181765	0.1076000	0.6996042	1.3891760	-0.0127500	0.6180784	1.1191196	0.0702000	0.6793169	0.9467219	0.1076000	1.0561092	1.3970157	-0.0127500	1.0930488	1.1067088	0.0702000	1.0232837	0.8954650	0.1076000
694	11.5500000	0.8503902	0.8635481	0.0301000	0.7575756	0.8750850	0.0301000	0.7491654	0.4795243	0.1290000	0.7606911	0.1252596	0.0230000	0.7566976	-0.0070793	0.2179000	0.7021886	0.0179816	0.1804000	0.7785259	0.1001722	-0.0119000	0.9423182	0.8684689	0.0301000	0.9203736	0.4763668	0.1290000	0.9232158	0.1242885	0.0230000	0.9080627	-0.0117696	0.2179000	0.9642718	0.0070355	0.1804000	0.9119370	0.1060141	-0.0119000	0.8646220	1.5152640	0.0008000	0.8387690	1.7950592	0.0655000	0.8020920	1.6177261	0.1076000	0.6995014	1.3891675	-0.0127500	0.6241176	1.1138110	0.0702000	0.6879593	0.9277717	0.1076000	1.0558926	1.3972654	-0.0127500	1.0923411	1.1057359	0.0702000	1.0252609	0.8897045	0.1076000
695	11.5666667	0.8509142	0.8645647	0.0301000	0.7587178	0.8757300	0.0301000	0.7488662	0.4799813	0.1290000	0.7608898	0.1256883	0.0230000	0.7573883	-0.0074591	0.2179000	0.7024726	0.0175030	0.1804000	0.7793436	0.1001983	-0.0119000	0.9417276	0.8695989	0.0301000	0.9198651	0.4768996	0.1290000	0.9233084	0.1250083	0.0230000	0.9077929	-0.0123694	0.2179000	0.9640979	0.0064542	0.1804000	0.9121215	0.1061397	-0.0119000	0.8645377	1.5151233	0.0008000	0.8392108	1.7952453	0.0655000	0.8015747	1.6172665	0.1076000	0.6991198	1.3891443	-0.0127500	0.6295159	1.1093979	0.0702000	0.6938266	0.9102769	0.1076000	1.0556518	1.3974997	-0.0127500	1.0916094	1.1047875	0.0702000	1.0279479	0.8832347	0.1076000
696	11.5833333	0.8514315	0.8655926	0.0301000	0.7599144	0.8761279	0.0301000	0.7487107	0.4802733	0.1290000	0.7610353	0.1261245	0.0230000	0.7580545	-0.0077748	0.2179000	0.7028394	0.0170477	0.1804000	0.7800858	0.1002670	-0.0119000	0.9411952	0.8704581	0.0301000	0.9194351	0.4772087	0.1290000	0.9234310	0.1256303	0.0230000	0.9075189	-0.0127807	0.2179000	0.9639277	0.0059264	0.1804000	0.9123749	0.1062111	-0.0119000	0.8643504	1.5148689	0.0008000	0.8397178	1.7954149	0.0655000	0.8010567	1.6168144	0.1076000	0.6984847	1.3890802	-0.0127500	0.6341155	1.1058332	0.0702000	0.6969800	0.8943826	0.1076000	1.0553618	1.3976862	-0.0127500	1.0908037	1.1038532	0.0702000	1.0313376	0.8761453	0.1076000
697	11.6000000	0.8519005	0.8665259	0.0301000	0.7610691	0.8762367	0.0301000	0.7486846	0.4804282	0.1290000	0.7611139	0.1266011	0.0230000	0.7586594	-0.0080331	0.2179000	0.7032292	0.0166309	0.1804000	0.7807198	0.1003927	-0.0119000	0.9407313	0.8709722	0.0301000	0.9191071	0.4773069	0.1290000	0.9235877	0.1262038	0.0230000	0.9072449	-0.0129972	0.2179000	0.9637724	0.0054857	0.1804000	0.9126682	0.1062764	-0.0119000	0.8640596	1.5145195	0.0008000	0.8402926	1.7955684	0.0655000	0.8005601	1.6163776	0.1076000	0.6976353	1.3889630	-0.0127500	0.6378142	1.1030397	0.0702000	0.6975780	0.8801626	0.1076000	1.0550062	1.3978012	-0.0127500	1.0898841	1.1029176	0.0702000	1.0354124	0.8685818	0.1076000
698	11.6166667	0.8522911	0.8672824	0.0301000	0.7620928	0.8760353	0.0301000	0.7487649	0.4804660	0.1290000	0.7611179	0.1271407	0.0230000	0.7591594	-0.0082432	0.2179000	0.7035837	0.0162631	0.1804000	0.7812226	0.1005850	-0.0119000	0.9403418	0.8711013	0.0301000	0.9188965	0.4772195	0.1290000	0.9237838	0.1267842	0.0230000	0.9069816	-0.0130310	0.2179000	0.9636524	0.0051540	0.1804000	0.9129812	0.1063802	-0.0119000	0.8636734	1.5141050	0.0008000	0.8409225	1.7957022	0.0655000	0.8001116	1.6159576	0.1076000	0.6966174	1.3887905	-0.0127500	0.6405709	1.1009223	0.0702000	0.6958581	0.8676195	0.1076000	1.0545790	1.3978293	-0.0127500	1.0888313	1.1019661	0.0702000	1.0401438	0.8607386	0.1076000
